<svg height="512pt" viewBox="0 -11 512.00147 512" width="512pt" xmlns="http://www.w3.org/2000/svg"><g fill-rule="evenodd"><path d="m145.71875 78.957031c-6.179688 157.796875 13.90625 315.871094 177.675781 377.21875 163.765625-61.347656 183.851563-219.421875 177.671875-377.21875-64.890625-68.96875-177.671875-68.96875-177.671875-68.96875s-112.785156 0-177.675781 68.96875zm0 0" fill="#fec96b"/><path d="m409.453125 274.222656c.480469 3.144532.730469 6.347656.730469 9.597656 0 40.757813-38.859375 73.800782-86.789063 73.800782-47.933593 0-86.792969-33.042969-86.792969-73.800782 0-3.253906.25-6.457031.730469-9.597656 21.488281 13.558594 52.09375 22.035156 86.0625 22.035156 33.964844 0 64.570313-8.476562 86.058594-22.035156zm0 0" fill="#ff9696"/><path d="m286.761719 439.632812c-114.140625-61.472656-140.925781-180.820312-141.960938-307.140624-10.46875 2.554687-16.71875 4.769531-16.71875 4.769531s-86.441406 30.644531-117.4375 101.132812c38.140625 122.621094 96.484375 238.320313 238.671875 240.84375 14.957032-12.578125 27.335938-25.816406 37.445313-39.605469zm0 0" fill="#ffdda3"/></g><path d="m323.394531 466.164062c-1.1875 0-2.375-.210937-3.503906-.636718-41.6875-15.613282-76.628906-38.375-103.859375-67.648438-24.605469-26.449218-43.753906-59.171875-56.921875-97.25-1.800781-5.214844.960937-10.902344 6.175781-12.703125 5.210938-1.804687 10.898438.960938 12.703125 6.175781 25.5 73.753907 73.082031 123.308594 145.402344 151.386719 156.558594-60.828125 173.167969-216.664062 167.839844-362.347656-61.496094-62.285156-166.773438-63.164063-167.84375-63.167969-1.058594.003906-106.335938.882813-167.832031 63.167969-1.949219 53.460937-.375 96.476563 4.925781 135.09375.75 5.464844-3.070313 10.503906-8.535157 11.253906-5.457031.753907-10.5-3.070312-11.25-8.535156-5.59375-40.714844-7.167968-85.960937-4.953124-142.386719.09375-2.40625 1.054687-4.699218 2.703124-6.453125 27.875-29.628906 68.726563-51.488281 118.136719-63.222656 37.019531-8.789063 65.613281-8.890625 66.8125-8.890625s29.789063.101562 66.808594 8.890625c49.414063 11.734375 90.261719 33.597656 118.140625 63.222656 1.648438 1.753907 2.609375 4.046875 2.703125 6.453125 3.894531 99.433594-4.035156 169.945313-25.714844 228.628906-13.464843 36.445313-32.644531 67.824219-57.003906 93.257813-26.835937 28.023437-60.964844 49.917969-101.429687 65.074219-1.132813.425781-2.316407.636718-3.503907.636718zm0 0"/><path d="m349.578125 175.34375c-1.808594 0-3.632813-.488281-5.277344-1.515625-4.679687-2.921875-6.109375-9.082031-3.1875-13.761719 11.980469-19.199218 34.8125-31.128906 59.589844-31.128906 24.773437 0 47.605469 11.929688 59.585937 31.128906 2.921876 4.679688 1.496094 10.839844-3.183593 13.761719-4.679688 2.917969-10.839844 1.492187-13.761719-3.1875-8.363281-13.402344-24.703125-21.730469-42.640625-21.730469-17.941406 0-34.28125 8.328125-42.644531 21.730469-1.890625 3.035156-5.148438 4.703125-8.480469 4.703125zm-52.371094 0c-3.332031 0-6.585937-1.667969-8.480469-4.703125-8.363281-13.402344-24.703124-21.730469-42.640624-21.730469-17.941407 0-34.28125 8.328125-42.644532 21.730469-2.917968 4.679687-9.078125 6.105469-13.757812 3.1875-4.679688-2.921875-6.105469-9.082031-3.1875-13.761719 11.984375-19.199218 34.816406-31.128906 59.589844-31.128906 24.773437 0 47.605468 11.929688 59.585937 31.128906 2.921875 4.679688 1.492187 10.839844-3.1875 13.761719-1.644531 1.027344-3.472656 1.515625-5.277344 1.515625zm0 0"/><path d="m323.394531 367.609375c-53.367187 0-96.78125-37.585937-96.78125-83.789063 0-3.699218.285157-7.4375.84375-11.105468.507813-3.328125 2.664063-6.179688 5.726563-7.578125 3.0625-1.398438 6.625-1.160157 9.476562.640625 20.644532 13.023437 50.070313 20.492187 80.730469 20.492187 30.664063 0 60.089844-7.46875 80.734375-20.492187 2.847656-1.800782 6.410156-2.039063 9.472656-.640625 3.066406 1.398437 5.21875 4.246093 5.726563 7.574219.5625 3.667968.847656 7.40625.847656 11.109374 0 46.203126-43.414063 83.789063-96.777344 83.789063zm-76.351562-76.820313c4.191406 31.917969 36.832031 56.84375 76.351562 56.84375 39.515625 0 72.15625-24.925781 76.347657-56.847656-21.832032 10.039063-48.320313 15.457032-76.347657 15.457032-28.027343 0-54.515625-5.417969-76.351562-15.453126zm0 0"/><path d="m252.878906 489.289062-3.742187-.066406c-35.414063-.628906-67.789063-8.203125-96.226563-22.515625-25.8125-12.992187-49.234375-31.988281-69.621094-56.460937-32.726562-39.285156-58.070312-91.371094-82.179687-168.886719l-1.109375-3.566406 1.503906-3.417969c32.359375-73.59375 119.546875-105.214844 123.242188-106.527344.273437-.097656 6.851562-2.414062 17.6875-5.058594l4.734375 19.40625c-9.761719 2.382813-15.695313 4.460938-15.757813 4.484376-.792968.28125-79.992187 29.125-110.089844 92.390624 35.25 112.042969 89.878907 225.652344 224.421876 230.085938 12.742187-11.046875 23.820312-22.949219 32.964843-35.425781l16.113281 11.804687c-10.765624 14.6875-23.910156 28.597656-39.078124 41.347656zm0 0"/><path d="m157.65625 268.90625c5.503906 0 9.988281-4.488281 9.988281-9.988281s-4.484375-9.988281-9.988281-9.988281c-5.5 0-9.984375 4.488281-9.984375 9.988281s4.484375 9.988281 9.984375 9.988281zm0 0" fill-rule="evenodd"/></svg>